<svg xmlns="http://www.w3.org/2000/svg" xmlns:xlink="http://www.w3.org/1999/xlink" viewBox="0 0 470 300">
				<defs>
				</defs>
				<path opacity="0.5" fill="#E8B6AA" d="M476.106,258.355h-3.875v-14.913h-33.892h-22.595v13.67h-4.42v21.126h-5.403v101.888
	C439.898,347.608,464.704,305.597,476.106,258.355z M439.803,263.606h5.912v13.153h-5.912V263.606z M426.798,263.606h5.909v13.153
	h-5.909V263.606z M426.798,287.05h5.909v13.151h-5.909V287.05z M414.758,263.606h5.909v13.153h-5.909V263.606z M414.758,287.05
	h5.909v13.151h-5.909V287.05z M414.758,310.487h5.909v13.152h-5.909V310.487z" />
				<path opacity="0.62" fill="#AEC5B7" d="M107.535,139.456h-3.91v-39.312h-6.172V71.709h-3.956v-8.365h-5.803l-2.639-48.51h2.902
	v-2.509H84V4.189c0-1.049-0.536-1.899-1.198-1.899h-0.383V0c-0.354,0.268-0.704,0.54-1.056,0.81v1.48h-0.384
	c-0.661,0-1.199,0.85-1.199,1.899v8.137h-3.956v2.509h2.902l-2.639,48.51h-5.802v8.365h-3.958v28.435h-6.641v39.312h-3.91v46.419
	h-1.847v187.948c16.45,16.904,35.266,31.489,55.922,43.217V185.875h-2.316V139.456z M75.008,76.096h2.25v21.588h-2.25V76.096z
	 M69.708,76.096h2.248v21.588h-2.248V76.096z M62.481,180.707h-2.248v-34.563h2.248V180.707z M64.657,136.958h-2.25V106.87h2.25
	V136.958z M67.782,180.707h-2.25v-34.563h2.25V180.707z M69.956,136.958h-2.248V106.87h2.248V136.958z M73.081,180.707h-2.248
	v-34.563h2.248V180.707z M75.254,136.958h-2.248V106.87h2.248V136.958z M78.38,180.707h-2.249v-34.563h2.249V180.707z
	 M80.556,136.958h-2.248V106.87h2.248V136.958z M82.557,97.684h-2.248V76.096h2.248V97.684z M85.855,136.958h-2.248V106.87h2.248
	V136.958z M87.856,97.684h-2.248V76.096h2.248V97.684z M91.593,136.958h-2.25V106.87h2.25V136.958z M93.157,97.684h-2.25V76.096
	h2.25V97.684z" />
				<path opacity="0.62" fill="#AEC5B7" d="M379.676,195.578h-3.331v-4.403h-30.339v4.403h-20.352v236.21
	c19.312-7.702,37.432-17.746,54.021-29.775V195.578z M339.708,370.768h-7.302V348.72h7.302V370.768z M339.708,343.826h-7.302
	v-22.048h7.302V343.826z M339.708,316.889h-7.302V294.84h7.302V316.889z M339.708,289.949h-7.302v-22.048h7.302V289.949z
	 M339.708,263.009h-7.302v-22.047h7.302V263.009z M339.708,235.457h-7.302v-22.046h7.302V235.457z M350.785,370.768h-7.3V348.72h7.3
	V370.768z M350.785,343.826h-7.3v-22.048h7.3V343.826z M350.785,316.889h-7.3V294.84h7.3V316.889z M350.785,289.949h-7.3v-22.048
	h7.3V289.949z M350.785,263.009h-7.3v-22.047h7.3V263.009z M350.785,235.457h-7.3v-22.046h7.3V235.457z M361.609,397.71h-7.3
	v-22.051h7.3V397.71z M361.609,370.768h-7.3V348.72h7.3V370.768z M361.609,343.826h-7.3v-22.048h7.3V343.826z M361.609,316.889h-7.3
	V294.84h7.3V316.889z M361.609,289.949h-7.3v-22.048h7.3V289.949z M361.609,263.009h-7.3v-22.047h7.3V263.009z M361.609,235.457
	h-7.3v-22.046h7.3V235.457z M373.084,397.71h-7.303v-22.051h7.303V397.71z M373.084,370.768h-7.303V348.72h7.303V370.768z
	 M373.084,343.826h-7.303v-22.048h7.303V343.826z M373.084,316.889h-7.303V294.84h7.303V316.889z M373.084,289.949h-7.303v-22.048
	h7.303V289.949z M373.084,263.009h-7.303v-22.047h7.303V263.009z M373.084,235.457h-7.303v-22.046h7.303V235.457z" />
				<path opacity="0.5" fill="#ECD2B4" d="M172.847,167.484l-34.628-21.341v21.341v10.67v252.688
	c16.602,6.816,34.096,11.898,52.264,15.019V178.154l-17.636-3.601V167.484z M167.132,207.348h-5.563v-17.889h5.563V207.348z
	 M180.943,189.459h5.564v17.889h-5.564V189.459z M176.597,189.459v17.889h-5.563v-17.889H176.597z" />
				<path opacity="0.53" fill="#936E6C"
					d="M335.217,379.683V171.374l-3.302-13.157h-9.91v-48.86H307.69
	c-27.524,7.517-39.637,48.86-39.637,48.86V295.71l1.536,151.123c23.264-3.402,45.49-9.997,66.211-19.346L335.217,379.683z" />
				<path opacity="0.5" fill="#ECD2B4" d="M415.064,370.901l-6.582-214.138h2.06v-3.252h6.24v-22.123h-8.247v-2.604h0.893v-7.156h0.892
	v-5.206h-1.784V74.779h1.784v-6.506h-2.004V49.621c0-0.499-0.278-0.901-0.619-0.901h-0.273V36.527c0-0.4-0.138-0.75-0.343-0.97
	v-8.266c0-0.493-0.275-0.893-0.612-0.893h-0.16v-7.163c-0.149-0.144-0.295-0.291-0.444-0.434v7.596H405.7
	c-0.337,0-0.609,0.4-0.609,0.893v8.266c-0.208,0.22-0.342,0.57-0.342,0.97V48.72h-0.274c-0.34,0-0.616,0.403-0.616,0.901v18.652
	h-2.006v6.506h1.783v41.644h-1.783v5.206h0.891v7.156h0.893v2.604h-8.245v22.123h6.237v3.252h1.7l-6.844,231.949
	C402.981,383.099,409.177,377.148,415.064,370.901z M412.323,134.589h2.086v14.332h-2.086V134.589z M408.846,134.589h2.086v14.332
	h-2.086V134.589z M399.459,148.92h-2.086v-14.332h2.086V148.92z M403.63,148.92h-2.084v-14.332h2.084V148.92z M407.126,148.92
	h-2.086v-14.332h2.086V148.92z" />
				<path opacity="0.5" fill="#ECD2B4"
					d="M406.307,14.266h-0.444v4.537c0.149,0.143,0.295,0.29,0.444,0.434V14.266z" />
				<path opacity="0.5" fill="#E8B6AA" d="M248.468,371.179v-41.67c-1.995-0.534-10.839,0-10.839,0v-6.997
	c-30.517-7.539-53.904,3.231-53.904,3.231v64.322v54.543c8.866,1.776,17.904,3.074,27.082,3.885h37.661V371.179z" />
				<path opacity="0.5" fill="#E8B6AA"
					d="M183.725,448.493h6.225h20.857c-9.178-0.811-18.216-2.108-27.082-3.885V448.493z" />
				<path opacity="0.53" fill="#936E6C" d="M71.38,218.979H40.146v-19.927l-5.512-9.594H0.951L0,290.018
	c15.238,39.21,40.085,73.614,71.648,100.34L71.38,283.185V218.979z" />
				<path
					d="M164.873,241.874c0,6.619,4.728,13.143,13.992,13.143c6.525,0,11.441-3.216,13.994-6.809h0.283l0.663,5.769h7.469
	c-0.474-3.121-0.662-6.997-0.662-10.968v-17.113c0-9.078-3.404-18.626-17.396-18.626c-5.769,0-11.346,1.606-15.13,3.969l1.893,5.579
	c3.215-2.173,7.657-3.402,12.008-3.402c9.361-0.097,10.399,6.807,10.399,10.494v0.945
	C174.706,224.761,164.873,230.812,164.873,241.874z M192.576,230.623v7.941c0,0.757-0.094,1.703-0.379,2.646
	c-1.324,3.876-5.2,7.66-11.251,7.66c-4.16,0-7.753-2.458-7.753-7.943C173.193,232.041,183.499,230.434,192.576,230.623z" />
				<path d="M257.437,230.434c0-13.805-8.321-23.164-19.479-23.164c-7.47,0-12.952,3.213-16.262,8.793h-0.189l-0.474-7.85h-7.375
	c0.191,4.351,0.38,9.078,0.38,14.938v49.547h8.225v-24.867h0.19c2.741,4.538,8.035,7.186,14.087,7.186
	C247.318,255.017,257.437,246.885,257.437,230.434z M235.122,248.493c-5.957,0-10.968-3.973-12.48-9.74
	c-0.283-1.04-0.379-2.173-0.379-3.402v-7.943c0-1.04,0.285-2.27,0.568-3.308c1.512-6.242,6.902-10.213,12.574-10.213
	c8.795,0,13.616,7.847,13.616,16.925C249.021,241.308,243.915,248.493,235.122,248.493z" />
				<path d="M267.833,272.698h8.225v-24.867h0.19c2.742,4.538,8.036,7.186,14.087,7.186c10.779,0,20.897-8.132,20.897-24.583
	c0-13.805-8.32-23.164-19.479-23.164c-7.469,0-12.952,3.213-16.262,8.793h-0.188l-0.475-7.85h-7.374
	c0.19,4.351,0.379,9.078,0.379,14.938V272.698z M276.058,227.407c0-1.04,0.285-2.27,0.568-3.308
	c1.513-6.242,6.903-10.213,12.574-10.213c8.795,0,13.617,7.847,13.617,16.925c0,10.496-5.107,17.682-13.9,17.682
	c-5.957,0-10.968-3.973-12.479-9.74c-0.283-1.04-0.38-2.173-0.38-3.402V227.407z" />
				<path d="M69.663,163.037c-0.735-0.603-1.311-1.029-1.728-1.277l-11.613-7.288c-0.662-0.426-1.238-0.692-1.728-0.798
	c-0.466-0.106-1.14,0.763-2.021,2.606c-2.401,4.966-5.685,7.448-9.85,7.448c-3.332,0-6.162-1.685-8.49-5.054
	c-2.328-3.369-3.491-7.465-3.491-12.289c0-4.788,1.169-8.866,3.51-12.235c2.339-3.369,5.164-5.054,8.471-5.054
	c3.872,0,7.044,2.27,9.519,6.809c0.515,0.994,0.895,1.685,1.14,2.075c0.294,0.568,1.262,0.319,2.903-0.745l11.688-7.501
	c0.71-0.46,1.225-0.975,1.544-1.542c0.391-0.673,0.159-2.039-0.699-4.096c-2.72-6.667-6.414-11.925-11.081-15.774
	c-4.667-3.847-9.672-5.771-15.014-5.771c-8.404,0-15.546,4.265-21.427,12.794c-5.88,8.53-8.82,18.877-8.82,31.041
	c0,12.201,2.935,22.556,8.802,31.067c5.868,8.511,13.016,12.768,21.445,12.768c5.611,0,10.812-2.075,15.602-6.224
	c4.79-4.15,8.508-9.806,11.154-16.971C70.263,164.898,70.324,163.569,69.663,163.037z" />
				<path d="M89.237,105.316H74.756c-1.201,0-1.801,0.87-1.801,2.607v77.137c0,1.738,0.6,2.606,1.801,2.606h14.481
	c1.2,0,1.801-0.869,1.801-2.606v-77.137C91.038,106.187,90.438,105.316,89.237,105.316z" />
				<path
					d="M141.815,105.424h-38.774c-1.47,0-2.205,0.816-2.205,2.447v19.63c0,1.631,0.735,2.447,2.205,2.447h8.821
	c1.029,0,1.543,0.851,1.543,2.553v52.56c0,1.738,0.602,2.606,1.804,2.606h14.474c1.202,0,1.804-0.869,1.804-2.606v-52.56
	c0-1.703,0.525-2.553,1.576-2.553h8.757c1.466,0,2.199-0.815,2.199-2.447v-19.63C144.02,106.24,143.285,105.424,141.815,105.424z" />
				<path d="M187.227,105.316h-14.443c-1.226,0-2.096,0.87-2.61,2.607c-0.49,1.597-0.857,2.785-1.103,3.564l-1.103,3.511
	c-0.27,0.816-0.515,1.223-0.735,1.223c-0.245,0-0.49-0.39-0.734-1.17l-2.205-7.129c-0.539-1.737-1.409-2.607-2.609-2.607h-14.407
	c-0.857,0-1.287,0.426-1.287,1.277c0,0.354,0.087,0.798,0.258,1.33l5.844,18.779c1.273,4.222,3.222,10.463,5.843,18.726
	c0.171,0.532,0.258,1.135,0.258,1.809v37.823c0,1.738,0.6,2.606,1.798,2.606h14.451c1.197,0,1.798-0.869,1.798-2.606l0.035-18.672
	c0-6.631,0-12.874,0-18.726c0-0.958,0.123-1.826,0.368-2.606l11.577-37.133c0.171-0.532,0.258-0.975,0.258-1.33
	C188.477,105.742,188.06,105.316,187.227,105.316z" />
				<path d="M215.953,105.104l-24.109,0.212c-1.103,0-1.654,0.87-1.654,2.607v77.137c0,1.738,0.601,2.606,1.805,2.606h14.474
	c1.203,0,1.805-0.869,1.805-2.606v-18.672c0-1.524,0.563-2.288,1.688-2.288h6.021c6.044,0,11.018-2.73,14.92-8.192
	c3.902-5.461,5.854-12.555,5.854-21.279c0-8.795-1.947-15.933-5.843-21.412C227.015,107.738,222.029,105.034,215.953,105.104z
	 M217.313,140.321c-1.716,0.852-3.933,1.277-6.652,1.277h-0.698c-1.079,0-1.618-0.815-1.618-2.447V135.8v-3.405
	c0.024-1.631,0.637-2.447,1.839-2.447h0.478c3.308,0,5.524,0.266,6.652,0.798c1.47,0.745,2.205,2.341,2.205,4.788
	C219.518,137.98,218.783,139.576,217.313,140.321z" />
				<path d="M254.786,185.061v-77.137c0-1.737-0.601-2.607-1.802-2.607h-14.48c-1.2,0-1.801,0.87-1.801,2.607v77.137
	c0,1.738,0.601,2.606,1.801,2.606h14.48C254.185,187.667,254.786,186.798,254.786,185.061z" />
				<path d="M288.657,190.221c5.611,0,10.812-2.075,15.603-6.224c4.79-4.15,8.508-9.806,11.154-16.971
	c0.783-2.128,0.846-3.458,0.184-3.989c-0.735-0.567-1.312-0.993-1.728-1.277l-11.613-7.288c-0.662-0.426-1.238-0.692-1.729-0.798
	c-0.465-0.106-1.139,0.763-2.021,2.606c-2.402,4.966-5.686,7.448-9.851,7.448c-3.332,0-6.162-1.685-8.489-5.054
	c-2.328-3.369-3.491-7.465-3.491-12.289c0-4.788,1.17-8.866,3.51-12.235c2.339-3.369,5.164-5.054,8.471-5.054
	c3.871,0,7.045,2.27,9.52,6.809c0.515,0.994,0.894,1.685,1.14,2.075c0.294,0.568,1.261,0.319,2.903-0.745l11.688-7.501
	c0.71-0.46,1.225-0.975,1.543-1.542c0.393-0.673,0.159-2.039-0.697-4.096c-2.721-6.667-6.414-11.925-11.082-15.774
	c-4.667-3.847-9.672-5.771-15.014-5.771c-8.404,0-15.546,4.265-21.427,12.794c-5.88,8.53-8.82,18.877-8.82,31.041
	c0,12.201,2.935,22.556,8.803,31.067C273.08,185.964,280.228,190.221,288.657,190.221z" />
				<path d="M320.654,187.667h14.444c1.225,0,1.837-0.869,1.837-2.606v-7.554v-7.608c0-0.958,0.123-1.524,0.368-1.702
	c0.27-0.178,0.538,0.159,0.809,1.01l5.072,15.853c0.563,1.738,1.163,2.606,1.8,2.606h14.443c0.516,0,0.98-0.248,1.397-0.745
	c0.515-0.567,0.662-1.188,0.441-1.862l-11.871-37.025c-0.662-1.312-0.687-2.926-0.074-4.842l11.283-35.27
	c0.563-1.737,0.343-2.607-0.661-2.607h-14.48c-1.397,0-2.377,0.87-2.94,2.607c-1.862,5.852-3.259,10.25-4.189,13.193
	c-0.441,1.313-0.771,1.987-0.992,2.022c-0.271,0-0.405-0.852-0.405-2.554v-12.661c0-1.737-0.612-2.607-1.837-2.607h-14.444
	c-1.201,0-1.801,0.87-1.801,2.607v77.137C318.853,186.798,319.453,187.667,320.654,187.667z" />
				<path d="M367.206,187.667c4.313,0,10.793-0.054,19.442-0.159c8.648-0.107,15.143-0.161,19.479-0.161c1.346,0,2.021-0.779,2.021-2.34
	v-18.619c0-1.56-0.675-2.341-2.021-2.341h-20.913c-1.176,0-1.753-0.958-1.728-2.873c0-2.056,0.576-3.085,1.728-3.085h18.817
	c1.273,0,1.911-0.745,1.911-2.235v-18.087c0-1.524-0.637-2.287-1.908-2.287h-18.567c-1.246,0-1.907-0.958-1.98-2.873
	s0.587-2.873,1.981-2.873h20.661c1.346,0,2.019-0.815,2.019-2.447v-19.577c0-1.667-0.675-2.5-2.021-2.5l-38.922,0.106
	c-1.201,0-1.801,0.87-1.801,2.607v77.137C365.405,186.798,366.004,187.667,367.206,187.667z" />
				<path d="M418.792,187.667h14.481c1.2,0,1.801-0.869,1.801-2.606V168.41c0.074-1.099,0.331-1.614,0.771-1.542
	c0.49,0.106,0.858,0.444,1.103,1.01l7.792,17.183c0.784,1.738,1.776,2.606,2.978,2.606h14.443c0.734,0,1.103-0.32,1.103-0.957
	c0-0.426-0.16-0.976-0.478-1.649l-9.445-20.854c-0.441-0.78-0.662-1.471-0.662-2.075c0-0.708,0.306-1.294,0.919-1.755
	c4.067-3.121,6.897-7.784,8.489-13.991c1.029-3.937,1.544-7.855,1.544-11.757c0-2.199-0.159-4.415-0.478-6.649
	c-1.054-7.164-3.455-12.803-7.203-16.917c-3.652-4.007-8.037-5.993-13.158-5.958l-24.109,0.212c-1.128,0-1.69,0.87-1.69,2.607
	v77.137C416.992,186.798,417.591,187.667,418.792,187.667z M435.184,135.8v-3.405c0.023-1.631,0.625-2.447,1.801-2.447h0.478
	c3.234,0,5.452,0.284,6.652,0.851c1.494,0.745,2.242,2.323,2.242,4.735c-0.024,2.447-0.772,4.042-2.242,4.787
	c-1.226,0.604-3.442,1.029-6.652,1.277l-0.698,0.054c-1.054,0.071-1.58-0.763-1.58-2.5V135.8z" />
			</svg>