<svg xmlns="http://www.w3.org/2000/svg" xmlns:xlink="http://www.w3.org/1999/xlink"
				viewBox="0 0 350 370">
				<defs>
				</defs>
				<g id="XMLID_1_">
					<g>
						<path fill="#C82129" d="M340.037,157.194c-0.312,0.352-0.431,0.898-0.399,1.597c-1.129,1.528-1.656,3.664-2.395,5.583
			c0,0.136,0,0.268,0,0.399c-8.452,15.225-13.233,34.122-28.331,42.698c-1.229,0.104-1.796,0.866-2.793,1.197
			c-2.071,0.854-4.286,1.564-5.986,2.794c-1.816,0.18-2.965,1.025-4.39,1.597c-2.312,0.746-4.81,1.309-6.785,2.395
			c-0.132,0-0.263,0-0.398,0c-1.014,0.048-1.549,0.578-1.597,1.596c3.021,5.225,9.139,7.355,13.968,10.771c-0.398,0-0.798,0-1.197,0
			c-11.996-0.639-20.025-5.248-32.721-5.188c-0.172-0.89-1.968-0.159-2.794-0.398c2.662,7.052,7.87,11.554,13.17,15.963
			c-2.198-0.199-3.56-1.232-5.587-1.596c-0.136,0-0.268,0-0.399,0c-1.324-0.436-2.618-0.906-3.879-1.409
			c-0.004,0.004-0.008-0.004-0.008-0.004c-0.132-0.052-0.264-0.104-0.396-0.159c-15.456-6.533-24.252-19.731-39.214-26.759
			c2.865-3.36,6.338-6.118,10.125-8.561c0.348-0.203,0.698-0.411,1.05-0.618c0.455-0.271,0.934-0.583,1.433-0.918
			c3.764-2.235,7.758-4.234,11.733-6.266c12.287,2.486,29.013,2.726,39.505-1.597C309.862,181.554,327.342,170.037,340.037,157.194z
			" />
						<path fill="#B09393"
							d="M240.514,198.172c3.791-2.57,8.684-6.669,11.733-6.266C248.271,193.938,244.277,195.937,240.514,198.172z" />
						<path fill="#5A5B5B"
							d="M137.327,128.061c-0.579,1.548-1.07,3.188-1.996,4.39C135.539,130.531,136.457,129.322,137.327,128.061z" />
						<path fill="#5A5B5B"
							d="M113.785,20.324c-37.127,21.399-70.47,46.581-91.777,83.796C42.847,66.435,76.111,41.176,113.785,20.324z" />
						<path fill="#5A5B5B"
							d="M255.384,150.649c0.167-0.144,0.335-0.287,0.498-0.439C255.73,150.37,255.563,150.521,255.384,150.649z" />
						<path fill="#5A5B5B" d="M253.684,178.681c-0.523,0.909-1.002,1.855-1.437,2.853c-0.787,0.436-1.573,0.87-2.363,1.306
			c0.543-0.399,1.065-0.83,1.564-1.306C252.282,180.74,253.005,179.747,253.684,178.681z" />
						<path fill="#5A5B5B"
							d="M9.236,153.602c0,3.592,0,7.18,0,10.771C8.57,161.708,8.57,156.268,9.236,153.602z" />
						<path fill="#5A5B5B"
							d="M315.693,130.854c2.246,0.419,4.246,1.078,5.986,1.996C319.437,132.435,317.437,131.776,315.693,130.854z" />
						<path fill="#5A5B5B"
							d="M166.057,183.928c0.718,1.409,1.082,3.177,1.596,4.789C166.707,187.533,166.184,185.928,166.057,183.928z" />
						<path fill="#5A5B5B" d="M286.165,125.67c-0.132,0.136-0.264,0.268-0.403,0.395c-4.921-9.973-13.979-15.808-23.139-21.546
			C272.552,109.488,280.761,116.176,286.165,125.67z" />
						<path fill="#B09393" d="M340.037,157.194c-12.695,12.843-30.175,24.36-48.285,33.116c15.88-9.299,34.277-18.426,45.891-31.52
			c1.113-1.261,2.151-3.233,3.192-2.794C340.261,156.084,340.695,157.186,340.037,157.194z" />
						<path fill="#5A5B5B"
							d="M164.061,165.97c0,2.395,0,4.789,0,7.184C163.398,171.681,163.398,167.446,164.061,165.97z" />
						<path fill="#5A5B5B"
							d="M226.311,19.526c-1.604-0.255-4.242,0.519-5.188-0.399C222.73,19.382,225.368,18.608,226.311,19.526z" />
						<path fill="#D6CED0" d="M215.535,83.372c-6.78,0-13.565,0-20.35,0c0-0.132,0-0.268,0-0.399
			C201.838,83.236,209.549,82.442,215.535,83.372z" />
						<path fill="#B09393"
							d="M262.224,143.226c-1.161,1.497-2.494,2.826-3.991,3.991C259.398,145.72,260.728,144.387,262.224,143.226z" />
						<path fill="#5A5B5B"
							d="M224.314,305.234c-3.328,0.663-9.438,0.663-12.767,0C215.803,305.234,220.061,305.234,224.314,305.234z" />
						<path fill="#5A5B5B" d="M286.165,182.333c-0.671,2.921-1.289,5.891-4.391,6.385C284.389,187.736,284.976,184.731,286.165,182.333z
			" />
						<path fill="#B09393"
							d="M267.523,235.191c1.261,0.503,2.555,0.974,3.879,1.409C270.062,236.181,268.769,235.709,267.523,235.191z" />
						<path fill="#B09393" d="M238.031,199.708c0.811-0.526,1.641-1.038,2.482-1.536c-0.499,0.335-0.978,0.646-1.433,0.918
			C238.729,199.297,238.379,199.505,238.031,199.708z" />
						<path fill="#5A5B5B"
							d="M283.771,153.602c-7.396,3.508-14.243,7.571-19.95,12.767c-1.497,1.165-2.83,2.494-3.991,3.991
			c-1.832,2.147-3.636,4.326-5.192,6.753c0.891-1.513,1.761-3.062,2.798-4.358C264.395,164.03,272.424,158.04,283.771,153.602z" />
						<path fill="#5A5B5B" d="M168.052,189.915c2.961,7.415,7.268,13.481,14.367,16.758C174.82,203.895,170.542,197.796,168.052,189.915
			z" />
						<path fill="#5A5B5B" d="M42.356,236.201c11.885,23.498,26.663,46.226,51.873,55.065c-11.298-6.39-19.926-15.452-25.538-27.532
			c7.004,12.551,16.087,23.019,29.528,29.129C70.093,285.081,54.277,261.523,42.356,236.201z" />
						<path fill="#5A5B5B" d="M230.301,304.436c0.93,0,1.864,0,2.794,0c-0.683,1.313-3.36,0.631-5.188,0.798
			C227.843,304.105,230.365,305.565,230.301,304.436z" />
						<path fill="#5A5B5B" d="M190.396,101.726c-19.184,9.015-33.611,22.788-43.093,41.5
			C156.319,124.046,170.698,110.226,190.396,101.726z" />
						<path fill="#5A5B5B"
							d="M182.818,219.044c1.341,0.251,3.703-0.516,4.386,0.398C185.863,219.188,183.5,219.954,182.818,219.044z" />
						<path fill="#5A5B5B"
							d="M234.691,84.968c-1.214-0.251-3.437,0.511-3.991-0.399C231.913,84.82,234.136,84.058,234.691,84.968z" />
						<path fill="#5A5B5B"
							d="M126.551,163.176c0,3.46,0,6.916,0,10.376C125.889,171.018,125.889,165.71,126.551,163.176z" />
						<path fill="#5A5B5B" d="M189.199,19.127c0.814-0.918,3.316-0.144,4.789-0.399c0,0.132,0,0.267,0,0.399
			C192.392,19.127,190.796,19.127,189.199,19.127z" />
						<path fill="#5A5B5B" d="M202.369,262.537c-2.056-0.604-3.707-1.612-4.789-3.193C199.133,260.453,200.837,261.407,202.369,262.537z
			" />
						<path fill="#5A5B5B" d="M242.273,149.611c-0.239,1.625-0.771,2.953-1.597,3.991C241.036,152.098,241.535,150.733,242.273,149.611z
			" />
						<path fill="#5A5B5B"
							d="M180.822,41.472c-1.871-0.259-4.78,0.523-5.986-0.399C176.704,41.332,179.613,40.55,180.822,41.472z" />
						<path fill="#5A5B5B" d="M295.344,149.212c-1.572,0.954-3.676,1.377-5.587,1.996C291.193,150.114,293.244,149.639,295.344,149.212z
			" />
						<path fill="#5A5B5B"
							d="M221.122,174.75c0.918,0.814,0.144,3.313,0.399,4.789C220.607,178.725,221.378,176.222,221.122,174.75z" />
						<path fill="#5A5B5B"
							d="M160.869,25.512c-2.822,1.832-6.118,3.189-9.175,4.789C154.419,28.37,157.221,26.518,160.869,25.512z" />
						<path fill="#5A5B5B"
							d="M132.538,139.235c0.167-1.696,0.698-3.025,1.596-3.991C133.774,136.749,133.276,138.114,132.538,139.235z" />
						<path fill="#D6CED0"
							d="M259.829,170.36c1.161-1.497,2.494-2.826,3.991-3.991C262.659,167.866,261.326,169.198,259.829,170.36z" />
						<path fill="#5A5B5B"
							d="M244.668,144.024c-0.092,1.64-0.846,2.614-1.597,3.592C243.539,146.355,243.798,144.886,244.668,144.024z" />
						<path fill="#5A5B5B"
							d="M208.355,46.261c2.243,0.415,4.242,1.078,5.986,1.996C212.095,47.841,210.096,47.179,208.355,46.261z" />
						<path fill="#5A5B5B"
							d="M75.875,249.769c8.078,17.724,22.045,29.564,38.707,38.703C97.438,279.813,83.37,268.076,75.875,249.769z" />
						<path fill="#5A5B5B" d="M149.698,31.495c-11.957,8.133-23.79,16.386-29.932,30.331C125.406,47.374,137.207,39.089,149.698,31.495z
			" />
						<path fill="#5A5B5B"
							d="M249.868,182.847c-1.561,1.146-3.284,2.008-5.08,2.77C246.492,184.703,248.184,183.777,249.868,182.847z" />
						<path fill="#5A5B5B"
							d="M57.119,214.654c0.918,0.814,0.147,3.313,0.399,4.789C56.604,218.629,57.374,216.126,57.119,214.654z" />
						<path d="M271.004,190.31c-2.132,0-4.259,0-6.386,0c-1.812-0.184-3.272-0.715-5.188-0.794c-0.559-0.639-1.372-1.021-2.395-1.197
			c5.077-8.896,11.055-20.337,18.758-27.936c5.14-1.64,9.39-4.174,15.161-5.184c-1.174,9.466-2.654,18.625-4.789,27.134
			c-1.189,2.398-1.776,5.403-4.391,6.385C278.271,189.336,274.811,189.995,271.004,190.31z" />
						<path fill="#5A5B5B" d="M239.081,158.791c-0.14,0.926-0.26,1.868-1.597,1.592c-1.572,0.243-1.768-0.89-1.995-1.992
			C235.972,159.888,238.41,160.718,239.081,158.791z" />
						<path fill="#5A5B5B"
							d="M120.166,17.132c-1.636,1.153-3.5,2.083-5.583,2.793C116.219,18.768,118.083,17.838,120.166,17.132z" />
						<path
							d="M187.204,219.443c-0.683-0.914-3.045-0.147-4.386-0.398c-3.8-0.463-6.952-1.564-10.376-2.395
			c-8.221-3.756-14.231-9.71-19.156-16.762c-0.131-0.93-0.407-1.72-1.197-1.995c-0.974-2.614-2.171-5.009-3.587-7.184
			c-2.323-6.721-4.965-13.126-6.386-20.749c0-2.794,0-5.587,0-8.381c0.607-4.977,2.012-9.159,3.193-13.565
			c0.826-1.038,1.357-2.367,1.596-3.991c0.387-0.012,0.308-0.487,0.399-0.798c9.482-18.713,23.909-32.485,43.093-41.5
			c7.396-2.714,15.182-5.037,24.345-5.986c4.784,0,9.573,0,14.362,0c10.743,0.83,19.923,3.225,28.331,6.385
			c0.978,0.75,1.952,1.508,3.592,1.596c0.264,0.535,0.854,0.742,1.597,0.798c9.159,5.739,18.218,11.573,23.139,21.546
			c-0.008,0.012-0.016,0.02-0.024,0.028c-5.331,4.095-12.874,5.975-17.927,10.349c-1.289,0.311-2.358,0.834-3.192,1.596
			c-4.242-7.2-10.863-12.013-19.152-15.161c-11.378-6.262-34.888-5.771-45.491,0.798c-14.938,6.741-27.154,16.207-33.519,31.524
			c-1.453,2.933-2.378,6.397-2.395,10.771c-0.663,1.477-0.663,5.711,0,7.184c0.08,4.178,0.826,7.686,1.996,10.775
			c0.127,2,0.65,3.604,1.596,4.789c-0.036,0.563-0.068,1.13,0.399,1.197c2.49,7.882,6.769,13.98,14.367,16.758
			c5.747,3.297,18.322,2.318,24.34,0c1.712-0.283,3.337-0.65,4.391-1.597c4.453-0.729,6.281-4.09,12.367-3.192
			c-0.067,0.866,1.417,0.18,1.995,0.399c0.694,2.334-3.891,4.94-6.385,6.784c-2.826,2.087-6.022,4.171-8.776,5.587
			c-5.411,1.908-10.986,3.647-17.56,4.391c-1.604,0.255-4.242-0.52-5.188,0.398C187.472,219.443,187.34,219.443,187.204,219.443z" />
						<path fill="#5A5B5B"
							d="M64.701,226.223c0.75,0.982,1.509,1.956,1.596,3.592C65.432,228.954,65.168,227.489,64.701,226.223z" />
						<path fill="#5A5B5B" d="M255.371,150.657c-0.367,0.327-0.746,0.643-1.129,0.95c-0.128-0.116-0.248-0.251-0.355-0.403
			C254.497,151.136,254.977,150.937,255.371,150.657z" />
						<path fill="#5A5B5B" d="M153.286,199.888c4.925,7.052,10.935,13.006,19.156,16.762
			C163.606,213.513,157.788,207.359,153.286,199.888z" />
						<path fill="#5A5B5B" d="M219.925,249.769c-1.624,1.298-3.896,1.952-5.982,2.794C215.746,251.438,217.459,250.228,219.925,249.769z
			" />
						<path fill="#5A5B5B"
							d="M148.501,190.709c1.417,2.175,2.614,4.569,3.587,7.184C150.596,195.793,149.403,193.399,148.501,190.709z" />
						<path fill="#5A5B5B"
							d="M232.695,19.925c-1.345-0.255-3.707,0.515-4.39-0.399C229.65,19.777,232.013,19.011,232.695,19.925z" />
						<path fill="#5A5B5B"
							d="M151.693,257.348c2.283,0.511,4.278,1.309,5.982,2.395C155.393,259.236,153.397,258.438,151.693,257.348z" />
						<path fill="#5A5B5B" d="M121.363,274.508c12.403,6.885,24.372,14.204,37.51,20.35
			C145.296,289.151,133.204,281.956,121.363,274.508z" />
						<path fill="#5A5B5B" d="M138.524,256.949c10.304,14.702,24.735,25.278,41.5,33.52
			C162.772,282.714,148.297,272.182,138.524,256.949z" />
						<path fill="#5A5B5B"
							d="M27.59,217.847c-0.663-2.271-0.663-7.312,0-9.578C27.59,211.461,27.59,214.654,27.59,217.847z" />
						<path fill="#5A5B5B" d="M137.726,127.263c1.684-4.697,3.815-8.956,6.385-12.767C142.135,118.906,139.873,123.028,137.726,127.263z
			" />
						<path fill="#5A5B5B"
							d="M20.012,108.111c-0.208,1.919-1.125,3.133-1.995,4.39C18.587,110.944,18.97,109.196,20.012,108.111z" />
						<path fill="#5A5B5B"
							d="M186.406,3.164c-3.456,0-6.917,0-10.373,0C178.563,2.501,183.876,2.501,186.406,3.164z" />
						<path fill="#5A5B5B"
							d="M279.385,132.451c-4.941,2.59-9.411,5.125-13.569,8.381c-3.663,2.87-6.525,6.33-9.934,9.378
			c0.866-0.914,1.333-2.231,2.351-2.993c1.497-1.165,2.83-2.494,3.991-3.991C267.173,138.864,272.668,135.049,279.385,132.451z" />
						<path fill="#5A5B5B" d="M334.051,142.827c0.687-1.173,4.099,0.375,4.789-0.798c-2.689-1.836-5.854-3.192-8.381-5.188
			c3.572,1.484,6.518,3.592,9.578,5.587C338.828,143.35,335.919,142.567,334.051,142.827z" />
						<path fill="#5A5B5B" d="M285.737,126.093c-4.816,4.605-12.367,6.485-17.927,10.349
			C272.863,132.068,280.406,130.188,285.737,126.093z" />
						<path fill="#5A5B5B"
							d="M164.061,296.853c1.844,0.284,3.452,0.807,4.789,1.597C167.006,298.167,165.398,297.644,164.061,296.853z" />
						<path fill="#5A5B5B"
							d="M146.904,144.024c-0.239,1.624-0.77,2.953-1.596,3.991C145.667,146.515,146.166,145.15,146.904,144.024z" />
						<path fill="#B09393" d="M302.927,227.82c-0.3,0.902-2.239,0.155-3.193,0.399c0-0.132,0-0.264,0-0.399c0.399,0,0.799,0,1.197,0
			c-4.829-3.416-10.946-5.547-13.968-10.771c0.048-1.018,0.583-1.548,1.597-1.596c-3.412,1.76,2.622,5.966,5.587,7.978
			C297.363,225.617,300.747,227.261,302.927,227.82z" />
						<path fill="#5A5B5B"
							d="M211.149,205.076c-1.054,0.946-2.679,1.313-4.391,1.597C207.929,205.85,209.637,205.559,211.149,205.076z" />
						<path fill="#5A5B5B"
							d="M214.741,95.739c3.858-0.663,10.503-0.663,14.362,0C224.314,95.739,219.525,95.739,214.741,95.739z" />
						<path fill="#5A5B5B" d="M136.528,59.031c-3.285,2.291-6.645,4.706-9.977,7.18c-3.245,2.415-6.346,5.663-9.973,6.385
			C123.638,68.482,129.014,62.691,136.528,59.031z" />
						<path fill="#5A5B5B" d="M285.762,126.065c0.004,0,0.004,0.004,0.004,0.004c-0.008,0.008-0.02,0.016-0.028,0.024
			C285.746,126.085,285.754,126.078,285.762,126.065z" />
						<path fill="#5A5B5B" d="M234.691,130.056c0.658,0.304,0.658,3.289,0,3.592c-0.232-0.702,0.482-2.342-0.399-2.395
			c-1.285,2.973-2.519,5.995-3.991,8.78C231.274,136.218,232.979,133.137,234.691,130.056z" />
						<path fill="#5A5B5B" d="M244.775,185.621c-3.902,2.087-7.886,4.095-12.08,5.887C236.367,188.574,240.745,187.336,244.775,185.621z
			" />
						<path fill="#5A5B5B"
							d="M159.272,41.472c2.135-0.926,5.982-0.136,8.78-0.399C165.917,41.999,162.07,41.208,159.272,41.472z" />
						<path fill="#5A5B5B"
							d="M68.692,235.003c0.994,1.532,2.063,2.993,2.395,5.188C69.949,238.802,69.418,236.803,68.692,235.003z" />
						<path fill="#5A5B5B" d="M195.186,83.372c-1.461,0-2.925,0-4.39,0c0.683-0.914,3.049-0.148,4.39-0.399
			C195.186,83.104,195.186,83.24,195.186,83.372z" />
						<path fill="#5A5B5B"
							d="M234.292,141.63c0,2.526,0,5.056,0,7.583C233.629,147.604,233.629,143.238,234.292,141.63z" />
						<path fill="#5A5B5B" d="M243.471,17.531c0.004,1.868-1.313,2.415-2.794,2.793c0.607-0.99,2.479-0.714,2.395-2.395
			c-1.169-2.155-4.776-1.875-6.385-3.592C239.133,15.22,241.818,15.854,243.471,17.531z" />
						<path fill="#5A5B5B"
							d="M257.435,102.125c1.381,0.351,2.766,0.694,3.592,1.596C259.387,103.633,258.412,102.875,257.435,102.125z" />
						<path fill="#D6CED0"
							d="M196.782,228.219c-3.329,0.666-9.438,0.666-12.771,0C188.27,228.219,192.527,228.219,196.782,228.219z" />
						<path fill="#5A5B5B" d="M141.317,298.05c-9.259-5.235-15.537-13.461-20.752-22.743
			C126.316,284.055,132.613,292.256,141.317,298.05z" />
						<path fill="#D6CED0"
							d="M245.466,220.64c1.497,1.161,2.826,2.49,3.987,3.987C247.956,223.466,246.628,222.137,245.466,220.64z" />
						<path fill="#B09393" d="M339.638,158.791c-0.634,2.027-1.201,4.118-2.395,5.583C337.981,162.454,338.509,160.319,339.638,158.791z
			" />
						<path fill="#5A5B5B"
							d="M212.347,270.518c-2.534,0.662-7.843,0.662-10.377,0C205.426,270.518,208.886,270.518,212.347,270.518z" />
						<path fill="#5A5B5B"
							d="M141.317,9.549c-2.542,1.186-5.336,2.111-8.381,2.794C135.479,11.161,138.272,10.231,141.317,9.549z" />
						<path fill="#5A5B5B"
							d="M192.791,3.563c-1.213-0.248-3.436,0.511-3.991-0.399C190.014,3.415,192.24,2.653,192.791,3.563z" />
						<path fill="#5A5B5B"
							d="M15.622,199.489c0.946,1.05,1.313,2.678,1.596,4.39C16.392,202.709,16.105,201.001,15.622,199.489z" />
						<path fill="#5A5B5B"
							d="M227.108,201.883c-3.863,5.982-9.857,9.829-16.758,12.771c2.754-1.416,5.95-3.5,8.776-5.587
			c2.494-1.844,7.079-4.45,6.385-6.784c-0.578-0.22-2.063,0.467-1.995-0.399C224.714,201.883,225.911,201.883,227.108,201.883z" />
						<path fill="#5A5B5B" d="M253.444,230.214c-9.897,6.996-20.529,13.254-31.923,18.757c10.491-6.138,21.61-11.646,31.124-18.757
			c-8.647-2.93-14.507-10.755-21.147-14.363c-0.354,0.308-0.901,0.428-1.596,0.399c0.131-0.934,1.739-0.387,1.995-1.197
			C238.854,220.333,244.716,226.707,253.444,230.214z" />
						<path fill="#5A5B5B"
							d="M210.75,224.627c-0.966,0.901-2.295,1.433-3.991,1.596C207.881,225.485,209.385,225.13,210.75,224.627z" />
						<path fill="#B09393" d="M308.912,207.47c15.098-8.576,19.879-27.473,28.331-42.698
			C329.277,180.485,324.369,199.253,308.912,207.47z" />
						<path fill="#5A5B5B"
							d="M66.697,230.614c0.75,0.978,1.508,1.951,1.596,3.592C67.427,233.343,67.164,231.875,66.697,230.614z" />
						<path fill="#5A5B5B"
							d="M221.122,51.05c13.126,6.293,25.043,13.796,31.523,26.734C245.662,65.349,233.773,57.818,221.122,51.05z" />
						<path fill="#5A5B5B"
							d="M170.047,21.92c-1.173,0.822-2.877,1.114-4.39,1.597C166.707,22.571,168.335,22.204,170.047,21.92z" />
						<path fill="#B09393" d="M267.12,235.028c-6.648-2.706-12.407-6.306-17.667-10.4c-1.161-1.497-2.49-2.826-3.987-3.987
			c-5.352-4.629-11.007-8.951-17.958-11.973c1.56-4.042,5.91-6.273,10.523-8.959c-3.787,2.442-7.26,5.2-10.125,8.561
			C242.868,215.296,251.664,228.495,267.12,235.028z" />
						<path fill="#D6CED0" d="M193.988,18.728c6.118,0,12.236,0,18.358,0c0,0.132,0,0.267,0,0.399c-6.122,0-12.24,0-18.358,0
			C193.988,18.995,193.988,18.86,193.988,18.728z" />
						<path fill="#5A5B5B" d="M253.815,151.092c-1.597-2.486-0.727-8.912-0.371-11.857C253.644,143.114,253.017,147.815,253.815,151.092
			z" />
						<path fill="#5A5B5B"
							d="M142.115,161.58c0,2.793,0,5.587,0,8.381C141.449,168.089,141.449,163.452,142.115,161.58z" />
						<path fill="#B09393"
							d="M288.958,215.453c1.976-1.086,4.474-1.648,6.785-2.395C293.915,214.287,291.452,214.885,288.958,215.453z" />
						<path fill="#5A5B5B" d="M199.975,123.675c-14.451,7.228-26.543,16.813-33.519,31.524
			C172.821,139.882,185.037,130.416,199.975,123.675z" />
						<path fill="#5A5B5B"
							d="M167.653,88.56c-10.819,4.877-17.799,13.593-22.744,24.34C149.443,101.737,156.323,92.921,167.653,88.56z" />
						<path fill="#5A5B5B"
							d="M271.004,190.31c-1.214,0.666-5.173,0.666-6.386,0C266.745,190.31,268.872,190.31,271.004,190.31z" />
						<path fill="#5A5B5B"
							d="M245.466,84.968c-1.871,0.663-6.509,0.663-8.381,0C239.879,84.968,242.673,84.968,245.466,84.968z" />
						<path fill="#5A5B5B" d="M245.466,122.877c8.289,3.148,14.91,7.961,19.152,15.161c-1.884-1.125-2.322-3.432-3.991-5.188
			C256.896,128.927,250.215,125.395,245.466,122.877z" />
						<path fill="#5A5B5B" d="M27.989,223.031c0.902,0.3,0.156,2.239,0.399,3.192c-2.023-2.227-3.456-5.052-4.785-7.978
			c1.86,1.86,2.518,4.929,4.386,6.78C27.989,224.364,27.989,223.698,27.989,223.031z" />
						<path d="M211.947,61.426c4.07,3.907,9.402,6.557,13.964,9.973c1.903-1.021,3.644-2.207,3.991-4.789
			C225.62,63.445,218.133,61.358,211.947,61.426z M151.693,257.348c-3.328-1.568-9.351-5.084-13.169-2.391
			c-0.231,0.239-0.934,1.892,0,1.991c9.773,15.233,24.248,25.766,41.5,33.52c14.455,6.96,30.933,11.896,50.276,13.968
			c0.064,1.129-2.458-0.331-2.395,0.798c-1.197,0-2.395,0-3.592,0c-4.254,0-8.512,0-12.767,0c-1.065,0-2.131,0-3.192,0
			c-0.683-0.914-3.049-0.147-4.39-0.398c-12.767-1.07-24.289-3.381-35.116-6.386c-1.337-0.79-2.945-1.313-4.789-1.597
			c-1.572-0.821-3.133-1.656-5.188-1.995c-13.138-6.146-25.106-13.465-37.51-20.35c-0.264,0-0.531,0-0.798,0
			c0,0.268,0,0.531,0,0.799c5.216,9.282,11.494,17.508,20.752,22.743c-0.08,0.3,0.164,0.432,0.399,0.399
			c-4.757,0.658-12.527-4.562-17.958-5.587c-1.257-0.87-2.466-1.788-4.39-1.996c-1.369-1.021-2.969-1.815-4.785-2.395
			c-16.662-9.139-30.629-20.979-38.707-38.703c-1.373-3.416-2.969-6.608-4.789-9.577c-0.331-2.195-1.401-3.656-2.395-5.188
			c0.064-0.463-0.088-0.71-0.399-0.798c-0.088-1.641-0.846-2.614-1.596-3.592c0.063-0.463-0.088-0.711-0.399-0.799
			c-0.087-1.636-0.846-2.609-1.596-3.592c-2.211-6.297-4.685-12.339-7.184-18.354c-0.922,1.473-0.136,4.649-0.399,6.784
			c0.255,1.473-0.515,3.976,0.399,4.789c0.778,17.712,4.629,32.346,11.174,44.291c5.611,12.08,14.239,21.143,25.538,27.532
			c-25.21-8.84-39.988-31.567-51.873-55.065c-4.773-11.322-8.536-23.653-11.973-36.313c-2.199,1.524-2.43,5.017-2.793,8.381
			c-0.663,2.267-0.663,7.307,0,9.578c-0.12,1.983,0.064,3.659,0.399,5.184c0,0.667,0,1.333,0,1.995
			c-1.868-1.852-2.526-4.92-4.386-6.78c-0.579-1.819-1.373-3.42-2.395-4.789c-0.092-1.64-0.846-2.613-1.596-3.592
			c-0.575-2.223-1.341-4.25-2.395-5.986c-0.283-1.712-0.65-3.34-1.596-4.39c-2.993-10.843-5.771-21.897-6.386-35.115
			c0-3.592,0-7.18,0-10.771c0.902-15.728,4.274-28.981,8.78-41.102c0.87-1.257,1.788-2.47,1.995-4.39
			c0.89-1.102,1.553-2.438,1.996-3.991c21.307-37.215,54.65-62.397,91.777-83.796c0.463,0.064,0.71-0.088,0.798-0.399
			c2.083-0.71,3.947-1.64,5.583-2.793c0.467,0.063,0.71-0.088,0.798-0.399c1.641-0.092,2.614-0.846,3.592-1.596
			c2.934-0.794,5.575-1.876,8.381-2.793c3.045-0.683,5.838-1.608,8.381-2.794c10.671-3.029,21.614-5.787,34.716-6.385
			c3.456,0,6.917,0,10.373,0c0.798,0,1.596,0,2.394,0c0.556,0.91,2.778,0.152,3.991,0.399c16.582,1.644,30.435,6.014,43.896,10.775
			c1.608,1.716,5.216,1.437,6.385,3.592c0.084,1.68-1.787,1.405-2.395,2.395c-2.793,0-4.912-0.678-7.981-0.399
			c-0.683-0.914-3.045-0.148-4.39-0.399c-0.667,0-1.329,0-1.995,0c-0.942-0.917-3.58-0.144-5.188-0.399c-0.93,0-1.859,0-2.794,0
			c-1.205-0.922-4.114-0.14-5.981-0.399c-6.122,0-12.24,0-18.358,0c-1.473,0.255-3.975-0.519-4.789,0.399
			c-7.312,0.004-13.681,0.95-19.152,2.793c-1.712,0.284-3.34,0.651-4.39,1.597c-1.916,0.343-3.536,0.985-4.789,1.995
			c-3.648,1.006-6.449,2.857-9.175,4.789c-0.934,0.132-1.72,0.407-1.995,1.193c-12.492,7.595-24.292,15.879-29.932,30.331
			c-0.634,0.559-1.018,1.373-1.193,2.39c-0.97,0.627-1.497,1.7-1.597,3.193c-1.241,0.89-1.309,2.949-1.197,5.188
			c0.264,0,0.531,0,0.798,0c3.627-0.722,6.729-3.971,9.973-6.385c3.333-2.474,6.692-4.889,9.977-7.18
			c7.399-4.162,17.196-6.964,27.134-9.179c3.061-0.683,7.235,0.124,9.179-2.793c-2.043-4.342-10.328-2.442-13.569-5.587
			c2.798-0.263,6.645,0.527,8.78-0.399c2.263,0,4.522,0,6.785,0c1.206,0.922,4.115,0.14,5.986,0.399
			c10.105,0.667,18.984,2.562,27.533,4.789c1.74,0.918,3.739,1.581,5.986,1.996c2.135,1.053,4.294,2.087,6.78,2.793
			c12.651,6.769,24.54,14.299,31.523,26.734c0.004,1.597,0.799,2.395,0.799,3.991c-1.485,2.239-4.602,2.845-7.979,3.192
			c-2.793,0-5.587,0-8.381,0c-0.798,0-1.596,0-2.394,0c-0.556-0.91-2.778-0.147-3.991-0.399c-5.036-0.415-9.642-1.269-15.165-1.197
			c-5.986-0.93-13.697-0.136-20.35-0.399c-1.341,0.251-3.707-0.515-4.39,0.399c-9.195,0.248-16.929,1.959-23.143,5.188
			c-11.33,4.362-18.21,13.178-22.744,24.34c-0.535,0.263-0.747,0.854-0.798,1.596c-2.57,3.811-4.701,8.069-6.385,12.767
			c-0.387,0.012-0.312,0.491-0.399,0.798c-0.87,1.261-1.788,2.47-1.996,4.39c-0.646,0.683-1.209,1.453-1.197,2.794
			c-0.898,0.966-1.429,2.294-1.596,3.991c-2.997,6.98-5.476,14.475-5.986,23.941c-0.663,2.534-0.663,7.842,0,10.376
			c0.084,6.034,1.564,10.672,3.592,14.767c7.144,16.665,19.966,27.652,36.313,35.111c4.809,2.638,10.62,4.282,17.556,4.789
			c3.332,0.666,9.441,0.666,12.771,0c3.911-0.08,7.228-0.755,9.977-1.996c1.696-0.163,3.025-0.694,3.991-1.596
			c6.593-2.582,13.034-5.32,19.152-8.377c0.694,0.028,1.241-0.092,1.596-0.399c6.641,3.608,12.5,11.434,21.147,14.363
			c-9.514,7.111-20.633,12.619-31.124,18.757c-0.742,0.052-1.333,0.26-1.597,0.798c-2.466,0.459-4.179,1.669-5.982,2.794
			c-5.424,2.027-10.487,4.406-16.362,5.982c0,0.268,0,0.535,0,0.798c1.082,1.581,2.733,2.59,4.789,3.193
			c2.079,1.381,4.326,2.59,7.184,3.192c1.05,0.945,2.674,1.313,4.39,1.597c2.211,0.846,4.565,1.552,7.579,1.596
			c-2.354,1.237-6.13,1.054-9.175,1.597c-3.461,0-6.921,0-10.377,0c-17.028-1.329-30.713-5.998-44.294-10.775
			C155.972,258.657,153.976,257.859,151.693,257.348z" />
						<path fill="#5A5B5B"
							d="M116.977,67.408c0.1-1.493,0.626-2.566,1.597-3.193C118.262,65.504,117.739,66.574,116.977,67.408z" />
						<path fill="#5A5B5B" d="M253.444,131.253c-4.454,0.758-5.404,8.413-8.377,11.973C246.839,140.069,250.271,129.234,253.444,131.253
			z" />
						<path fill="#B09393"
							d="M300.133,211.461c1.7-1.229,3.915-1.939,5.986-2.794C304.479,209.957,302.319,210.723,300.133,211.461z" />
						<path fill="#5A5B5B"
							d="M124.556,15.136c-0.978,0.75-1.951,1.504-3.592,1.596C121.826,15.867,123.295,15.603,124.556,15.136z" />
						<path fill="#5A5B5B"
							d="M208.355,305.234c-1.345-0.251-3.708,0.515-4.39-0.398C205.307,305.086,207.673,304.32,208.355,305.234z" />
						<path fill="#5A5B5B" d="M218.328,19.127c-1.995,0-3.986,0-5.981,0c0-0.132,0-0.267,0-0.399
			C214.214,18.987,217.123,18.205,218.328,19.127z" />
						<path fill="#5A5B5B"
							d="M272.6,161.979c1.254-0.339,1.685-1.508,3.193-1.596c-7.703,7.599-13.681,19.041-18.758,27.936
			c1.022,0.176,1.836,0.559,2.395,1.197c-1.492-0.104-2.267-0.926-3.192-1.597C261.569,179.148,267.399,170.883,272.6,161.979z" />
						<path fill="#5A5B5B" d="M253.887,151.204c-0.012,0-0.027,0.004-0.044,0.004c-0.008-0.04-0.02-0.076-0.027-0.116
			C253.839,151.132,253.863,151.168,253.887,151.204z" />
						<path fill="#5A5B5B"
							d="M187.604,219.443c0.945-0.918,3.583-0.144,5.188-0.398C191.85,219.962,189.211,219.184,187.604,219.443z" />
						<path d="M221.122,174.75c1.381-13.253,6.038-23.227,9.179-34.716c1.473-2.785,2.706-5.807,3.991-8.78
			c0.882,0.052,0.167,1.692,0.399,2.395c-0.615,2.183-0.355,5.236-0.399,7.982c-0.663,1.608-0.663,5.974,0,7.583
			c-0.068,3.524,0.14,6.776,1.197,9.179c0.228,1.102,0.423,2.235,1.995,1.992c1.337,0.275,1.457-0.667,1.597-1.592
			c0.674-1.588,1.285-3.237,1.596-5.188c0.826-1.038,1.357-2.366,1.597-3.991c0.591-0.339,0.858-1.005,0.798-1.995
			c0.751-0.978,1.505-1.952,1.597-3.592c0.387-0.012,0.308-0.487,0.399-0.798c2.973-3.56,3.923-11.214,8.377-11.973
			c0,2.662,0,5.324,0,7.982c-0.355,2.945-1.226,9.371,0.371,11.857c0.008,0.04,0.02,0.076,0.027,0.116
			c0.017,0,0.032-0.004,0.044-0.004c0.107,0.152,0.228,0.288,0.355,0.403c0.383-0.307,0.762-0.623,1.129-0.95
			c0.004,0.004,0.009,0,0.013-0.008c0.18-0.127,0.347-0.279,0.498-0.439c3.408-3.049,6.271-6.509,9.934-9.378
			c4.158-3.256,8.628-5.791,13.569-8.381c9.865-4.11,25.026-5.136,36.309-1.596c1.743,0.922,3.743,1.581,5.986,1.996
			c0.339,0.594,1.005,0.858,1.995,0.798c0.978,0.75,1.951,1.509,3.592,1.597c0.834,0.762,1.903,1.289,3.192,1.596
			c2.526,1.996,5.691,3.352,8.381,5.188c-0.69,1.173-4.103-0.375-4.789,0.798c-14.57,0.459-27.31,2.75-38.707,6.385
			c-2.1,0.427-4.15,0.902-5.587,1.996c-2.367,0.423-4.362,1.221-5.986,2.394c-11.347,4.438-19.376,10.428-26.336,19.152
			c-1.037,1.297-1.907,2.845-2.798,4.358c-0.331,0.511-0.65,1.033-0.953,1.568c-0.679,1.065-1.401,2.059-2.235,2.853
			c-0.499,0.476-1.021,0.906-1.564,1.306c-0.004,0.004-0.008,0.008-0.016,0.008c-1.685,0.93-3.376,1.855-5.08,2.77
			c-0.004,0-0.009,0.004-0.013,0.004c-4.03,1.716-8.408,2.953-12.08,5.887c-2.997,0.862-5.268,2.45-8.381,3.192
			c-0.918-5.064-2.175-9.793-2.793-15.161C221.266,178.062,222.04,175.564,221.122,174.75z" />
						<path fill="#5A5B5B" d="M130.143,188.319c7.71,16.099,20.437,27.178,36.313,35.111
			C150.109,215.971,137.287,204.984,130.143,188.319z" />
						<path fill="#5A5B5B"
							d="M209.553,265.729c1.732,0.264,3.081,0.91,4.39,1.597C212.227,267.042,210.603,266.674,209.553,265.729z" />
						<path fill="#5A5B5B"
							d="M323.675,133.648c1.261,0.467,2.729,0.73,3.592,1.597C325.626,135.157,324.652,134.398,323.675,133.648z" />
						<path fill="#5A5B5B"
							d="M254.637,177.113c-0.314,0.53-0.626,1.057-0.953,1.568C253.986,178.146,254.306,177.624,254.637,177.113z" />
						<path fill="#B09393" d="M277.389,238.196c-5.3-4.409-10.508-8.911-13.17-15.963c0.826,0.239,2.622-0.491,2.794,0.398
			c-0.798,0-1.597,0-2.395,0c3.76,6.885,8.245,13.038,15.564,16.363c-2.263,0.259-6.31-1.138-8.381-2.395
			C273.829,236.963,275.19,237.997,277.389,238.196z" />
						<path fill="#B09393"
							d="M267.12,235.028c0.132,0.056,0.264,0.107,0.396,0.159C267.38,235.135,267.248,235.083,267.12,235.028z" />
						<path fill="#5A5B5B"
							d="M119.368,290.867c1.924,0.208,3.133,1.126,4.39,1.996C122.201,292.292,120.457,291.909,119.368,290.867z" />
						<path fill="#5A5B5B"
							d="M21.209,213.457c-0.87-0.861-1.129-2.33-1.596-3.592C20.363,210.843,21.117,211.817,21.209,213.457z" />
					</g>
					<g>
					</g>
				</g>
				<path d="M10.359,312.385c5.516,0,10.21,1.625,14.086,4.875c4.093,3.453,6.141,7.883,6.141,13.289c0,5.344-2.094,9.75-6.281,13.219
	c-3.953,3.25-8.657,4.875-14.109,4.875H1.148c-0.766,0-1.148-0.375-1.148-1.125v-33.984c0-0.766,0.383-1.148,1.148-1.148H10.359z
	 M11.531,336.057c0,1.016,0.405,1.523,1.215,1.523c0.187,0,0.397-0.031,0.631-0.094c1.62-0.438,2.948-1.293,3.983-2.566
	s1.554-2.73,1.554-4.371c0-1.625-0.53-3.086-1.588-4.383c-1.044-1.25-2.36-2.086-3.949-2.508c-1.23-0.328-1.846,0.078-1.846,1.219
	V336.057z" />
				<path d="M41.494,339.924c-0.156-0.25-0.391-0.398-0.703-0.445c-0.281-0.031-0.445,0.195-0.492,0.68v7.336
	c0,0.766-0.383,1.148-1.148,1.148h-9.234c-0.766,0-1.148-0.383-1.148-1.148V313.51c0-0.766,0.359-1.148,1.078-1.148l15.375-0.094
	c3.266-0.016,6.063,0.859,8.391,2.625c2.391,1.813,3.922,4.297,4.594,7.453c0.203,0.984,0.305,1.961,0.305,2.93
	c0,1.719-0.328,3.445-0.984,5.18c-1.016,2.734-2.82,4.789-5.414,6.164c-0.391,0.203-0.586,0.461-0.586,0.773
	c0,0.266,0.141,0.57,0.422,0.914l6.023,9.188c0.203,0.297,0.305,0.539,0.305,0.727c0,0.281-0.234,0.422-0.703,0.422h-9.211
	c-0.766,0-1.398-0.383-1.898-1.148L41.494,339.924z M41.822,323.213h-0.305c-0.75,0-1.133,0.359-1.148,1.078v1.5v1.477
	c0,0.766,0.336,1.133,1.008,1.102l0.445-0.023c2.047-0.109,3.461-0.297,4.242-0.563c0.938-0.328,1.414-1.031,1.43-2.109
	c0-1.063-0.477-1.758-1.43-2.086C45.298,323.338,43.884,323.213,41.822,323.213z" />
				<path d="M73.729,313.911l16.852,33.371c0.109,0.219,0.164,0.407,0.164,0.563c0,0.532-0.555,0.798-1.664,0.798h-7.266
	c-0.844,0-1.375-0.048-1.594-0.144c-0.281-0.143-0.602-0.548-0.961-1.215c-0.531-1.001-1.398-1.485-2.602-1.454
	c-2.219,0.031-4.18,0.031-5.883,0c-1.969,0-3.93,0-5.883,0c-1.078,0-1.828,0.453-2.25,1.359c-0.328,0.703-0.609,1.121-0.844,1.254
	s-0.766,0.199-1.594,0.199l-3.727-0.023c-0.812,0-2.047-0.008-3.703-0.023c-1.125,0-1.688-0.273-1.688-0.82
	c0-0.188,0.063-0.406,0.188-0.656l16.758-33.211c0.609-1.203,1.562-1.805,2.859-1.805C72.174,312.104,73.12,312.707,73.729,313.911z
	 M72.604,334.393c-0.281-0.563-0.695-1.398-1.242-2.508c-0.172-0.188-0.336-0.281-0.492-0.281c-0.172,0-0.336,0.102-0.492,0.305
	c-0.313,0.578-0.742,1.43-1.289,2.555c-0.188,0.438-0.063,0.688,0.375,0.75h2.859c0.234,0,0.359-0.117,0.375-0.352
	C72.698,334.659,72.667,334.502,72.604,334.393z" />
				<path d="M102.31,311.143c3.406,0,6.589,0.848,9.551,2.543c2.961,1.695,5.316,4.012,7.066,6.949c0.547,0.922,0.703,1.523,0.469,1.805
	c-0.203,0.25-0.531,0.477-0.984,0.68l-7.477,3.305c-1.031,0.453-1.641,0.563-1.828,0.328c-0.156-0.172-0.398-0.477-0.727-0.914
	c-1.579-2-3.602-3-6.07-3c-2.125,0-3.93,0.742-5.414,2.227c-1.485,1.484-2.227,3.289-2.227,5.414s0.742,3.926,2.227,5.402
	c1.484,1.477,3.289,2.215,5.414,2.215c2.546,0,4.664-1.125,6.352-3.375c0.015-0.031,0.039-0.07,0.07-0.117v-5.086
	c0-0.766,0.39-1.148,1.172-1.148h9.211c0.765,0,1.148,0.383,1.148,1.148v20.883c0,0.766-0.383,1.148-1.148,1.148h-9.211
	c-0.782,0-1.172-0.383-1.172-1.148c0-0.891-0.156-1.352-0.469-1.383c-0.297-0.031-0.555-0.016-0.773,0.047
	c-1.703,0.469-3.43,0.703-5.18,0.703c-5.359,0-9.914-1.875-13.664-5.625s-5.625-8.305-5.625-13.664s1.875-9.922,5.625-13.688
	S96.95,311.143,102.31,311.143z" />
				<path d="M139.538,311.096c5.344,0,9.898,1.883,13.664,5.648s5.648,8.32,5.648,13.664c0,5.359-1.879,9.918-5.637,13.676
	s-8.316,5.637-13.676,5.637c-5.375,0-9.938-1.875-13.688-5.625s-5.625-8.313-5.625-13.688c0-5.359,1.879-9.918,5.637-13.676
	S134.178,311.096,139.538,311.096z M139.538,322.768c-2.109,0-3.91,0.746-5.402,2.238s-2.238,3.293-2.238,5.402
	c0,2.125,0.742,3.93,2.227,5.414s3.289,2.227,5.414,2.227c2.109,0,3.91-0.746,5.402-2.238s2.238-3.293,2.238-5.402
	s-0.746-3.91-2.238-5.402S141.647,322.768,139.538,322.768z" />
				<path d="M182.273,312.338c0.766,0,1.148,0.383,1.148,1.148v34.336c0,0.672-0.219,1.008-0.656,1.008
	c-0.094,0-0.195-0.016-0.305-0.047c-0.625-0.172-1.078-0.352-1.359-0.539l-12.328-7.922c-0.422-0.266-0.633-0.188-0.633,0.234v6.703
	c0,0.906-0.469,1.359-1.406,1.359h-9.047c-0.782,0-1.172-0.383-1.172-1.148v-34.172c0-0.734,0.296-1.055,0.891-0.961
	c0.609,0.109,1.016,0.235,1.219,0.376l12.023,8.201c0.296,0.204,0.531,0.306,0.703,0.306c0.313,0,0.469-0.281,0.469-0.844v-6.891
	c0-0.797,0.453-1.18,1.359-1.148c1.688,0.031,3.203,0.031,4.547,0C179.242,312.338,180.758,312.338,182.273,312.338z" />
				<path d="M218.854,311.143c3.406,0,6.598,0.848,9.574,2.543s5.332,4.012,7.066,6.949c0.547,0.906,0.695,1.508,0.445,1.805
	c-0.203,0.25-0.531,0.477-0.984,0.68l-7.453,3.305c-1.047,0.469-1.664,0.578-1.852,0.328c-0.156-0.172-0.398-0.477-0.727-0.914
	c-1.578-2-3.602-3-6.07-3c-2.109,0-3.91,0.742-5.402,2.227s-2.238,3.281-2.238,5.391c0,2.125,0.742,3.93,2.227,5.414
	s3.289,2.227,5.414,2.227c2.656,0,4.75-1.094,6.281-3.281c0.563-0.813,0.992-1.195,1.289-1.148c0.313,0.047,0.68,0.164,1.102,0.352
	l7.406,3.211c0.266,0.109,0.633,0.297,1.102,0.563c0.422,0.234,0.383,0.82-0.117,1.758c-1.688,3.156-4.059,5.648-7.113,7.477
	s-6.371,2.742-9.949,2.742c-5.375,0-9.934-1.875-13.676-5.625s-5.613-8.313-5.613-13.688c0-5.359,1.875-9.918,5.625-13.676
	S213.494,311.143,218.854,311.143z" />
				<path
					d="M253.41,313.911l16.852,33.371c0.109,0.219,0.164,0.407,0.164,0.563c0,0.532-0.555,0.798-1.664,0.798h-7.266
	c-0.844,0-1.375-0.048-1.594-0.144c-0.281-0.143-0.602-0.548-0.961-1.215c-0.531-1.001-1.398-1.485-2.602-1.454
	c-2.219,0.031-4.18,0.031-5.883,0c-1.969,0-3.93,0-5.883,0c-1.078,0-1.828,0.453-2.25,1.359c-0.328,0.703-0.609,1.121-0.844,1.254
	s-0.766,0.199-1.594,0.199l-3.727-0.023c-0.813,0-2.047-0.008-3.703-0.023c-1.125,0-1.688-0.273-1.688-0.82
	c0-0.188,0.063-0.406,0.188-0.656l16.758-33.211c0.609-1.203,1.563-1.805,2.859-1.805
	C251.855,312.104,252.801,312.707,253.41,313.911z M252.285,334.393c-0.281-0.563-0.695-1.398-1.242-2.508
	c-0.172-0.188-0.336-0.281-0.492-0.281c-0.172,0-0.336,0.102-0.492,0.305c-0.313,0.578-0.742,1.43-1.289,2.555
	c-0.188,0.438-0.063,0.688,0.375,0.75h2.859c0.234,0,0.359-0.117,0.375-0.352C252.379,334.659,252.348,334.502,252.285,334.393z" />
				<path d="M278.99,339.924c-0.156-0.25-0.391-0.398-0.703-0.445c-0.281-0.031-0.445,0.195-0.492,0.68v7.336
	c0,0.766-0.383,1.148-1.148,1.148h-9.234c-0.766,0-1.148-0.383-1.148-1.148V313.51c0-0.766,0.359-1.148,1.078-1.148l15.375-0.094
	c3.266-0.016,6.063,0.859,8.391,2.625c2.391,1.813,3.922,4.297,4.594,7.453c0.203,0.984,0.305,1.961,0.305,2.93
	c0,1.719-0.328,3.445-0.984,5.18c-1.016,2.734-2.82,4.789-5.414,6.164c-0.391,0.203-0.586,0.461-0.586,0.773
	c0,0.266,0.141,0.57,0.422,0.914l6.023,9.188c0.203,0.297,0.305,0.539,0.305,0.727c0,0.281-0.234,0.422-0.703,0.422h-9.211
	c-0.766,0-1.398-0.383-1.898-1.148L278.99,339.924z M279.318,323.213h-0.305c-0.75,0-1.133,0.359-1.148,1.078v1.5v1.477
	c0,0.766,0.336,1.133,1.008,1.102l0.445-0.023c2.047-0.109,3.461-0.297,4.242-0.563c0.938-0.328,1.414-1.031,1.43-2.109
	c0-1.063-0.477-1.758-1.43-2.086C282.795,323.338,281.381,323.213,279.318,323.213z" />
				<path d="M305.086,312.385c5.516,0,10.211,1.625,14.086,4.875c4.094,3.453,6.141,7.883,6.141,13.289c0,5.344-2.094,9.75-6.281,13.219
	c-3.953,3.25-8.656,4.875-14.109,4.875h-9.047c-0.766,0-1.148-0.375-1.148-1.125v-33.984c0-0.766,0.383-1.148,1.148-1.148H305.086z
	 M306.258,336.057c0,1.016,0.404,1.523,1.215,1.523c0.186,0,0.396-0.031,0.631-0.094c1.619-0.438,2.947-1.293,3.982-2.566
	s1.555-2.73,1.555-4.371c0-1.625-0.529-3.086-1.59-4.383c-1.043-1.25-2.359-2.086-3.947-2.508c-1.23-0.328-1.846,0.078-1.846,1.219
	V336.057z" />
				<path d="M348.197,330.807c2.406,1.953,3.609,4.297,3.609,7.031c0,3.375-1.711,6.094-5.133,8.156
	c-2.938,1.766-6.203,2.648-9.797,2.648c-2.563,0-4.977-0.445-7.242-1.336c-2.547-1.016-4.5-2.453-5.859-4.313
	c-0.25-0.344-0.289-0.68-0.117-1.008c0.172-0.297,0.414-0.523,0.727-0.68l8.063-3.797c0.438-0.203,1.117-0.133,2.039,0.211
	c1.125,0.438,1.914,0.656,2.367,0.656c0.734,0,1.438-0.133,2.109-0.398c0.875-0.359,1.313-0.852,1.313-1.477
	c0-1.219-1.133-1.813-3.398-1.781c-1.422,0.016-2.789-0.102-4.102-0.352c-2.75-0.531-5.156-1.719-7.219-3.563
	c-2.391-2.125-3.586-4.555-3.586-7.289c0-3.453,1.68-6.25,5.039-8.391c2.906-1.875,6.195-2.813,9.867-2.813
	c2.859,0,5.531,0.578,8.016,1.734c2.828,1.328,4.805,3.156,5.93,5.484c0.125,0.25,0.188,0.484,0.188,0.703
	c0,0.5-0.352,0.836-1.055,1.008l-8.484,3.117c-0.625,0.234-1.047,0.266-1.266,0.094c-0.156-0.109-0.398-0.281-0.727-0.516
	c-0.641-0.453-1.516-0.68-2.625-0.68c-0.719,0-1.414,0.133-2.086,0.398c-0.875,0.359-1.313,0.844-1.313,1.453
	c0,0.625,0.438,1.109,1.313,1.453c0.641,0.266,1.336,0.398,2.086,0.398c1.75,0.016,3.734,0.391,5.953,1.125
	C345.104,328.838,346.9,329.745,348.197,330.807z" />
			</svg>