<svg xmlns="http://www.w3.org/2000/svg"
				xmlnsXlink="http://www.w3.org/1999/xlink" viewBox="0.75 -0.253 213 324">
				<defs>
				</defs>
				<g id="XMLID_1_">
					<g>
						<path fill="#D9B829" d="M1.416,0.25c70.66,0,141.32,0,211.97,0c-0.35,11.65-0.979,23.02-3,33c-0.18-11.19,2.061-19.95,2-31
			c-52.859-1.8-123.13-1-183.97-1c-10.82,0-31.84-4.49-26,8C0.146,8.19,2.036,2.96,1.416,0.25z" />
						<path fill="#B5962F" d="M212.385,2.25c0.061,11.05-2.18,19.81-2,31c0,0.33,0,0.66,0,1c-2.279,1.71-0.359,7.63-1,10.99
			c0,0.34,0,0.67,0,1c-2.279,1.39-0.37,6.96-1,10c0,1,0,2,0,3c-1.77,5.9-2.1,13.23-2,21c0,0.33,0,0.67,0,1
			c-2.92,21.74-4.739,44.58-6,67.99c0,0.33,0,0.67,0,1c-2.109,10.22-2.55,22.11-2.989,34c0,0.329,0,0.659,0,1
			c-3.021,8.979-0.24,23.76-5,30.989c-1.78,0.561-4.16,0.521-5,2c-2.45,0.891-4.341,2.33-8,2c-12.04,2.96-24.211,5.8-35,10
			c-2.44,0.891-4.33,2.33-8,2c-9.75,2.25-19.421,4.57-27.99,8c0,0.33,0,0.67,0,1c-0.67,0-1.34,0-2,0c0-0.33,0-0.67,0-1
			c-7.19-3.14-15.51-5.16-24-7c-2.32,0.32-3.84-0.16-5-1c-9.32-4.01-20.28-6.38-31-9c-0.33,0-0.66,0-1,0
			c-6.85-4.479-18.95-3.71-24.99-9c-0.55-10.79-1.18-21.479-3-30.989c0-0.341,0-0.671,0-1c-0.16-12.181-1.18-23.49-3-34
			c0-0.33,0-0.67,0-1c0.07-8.07-0.31-15.69-2-22c0-0.33,0-0.66,0-1c-0.63-3.03,1.28-8.61-1-9.99c0-0.34,0-0.67,0-1
			c-0.64-3.7,1.29-9.96-1-12c0-0.34,0-0.67,0-1c0.03-7.7-0.37-14.96-2-21c0-0.33,0-0.67,0-1c-0.25-12.09-0.97-23.69-3-34
			c0-0.33,0-0.66,0-1c-0.25-11.74-0.85-23.15-3-32.99c0-0.33,0-0.67,0-1c-5.84-12.49,15.18-8,26-8
			C89.255,1.25,159.526,0.45,212.385,2.25z M176.396,204.22c5.449-61.21,12.22-126.42,16-185.97c-27.131,2.39-61.921,0.17-83.99,0
			c-2.34,65.99-0.34,136.31-1,203.97C131.135,216.96,152.425,209.26,176.396,204.22z M100.406,195.23c0-50.661,0-101.331,0-151.99
			c-8.41,0.59-19.23-1.22-26,1c-0.67,38.67,1.33,79.99-1,116.99c-3.06,0.73-2.94-1.73-6-1c-0.33,0-0.66,0-1,0
			c-9.81-3.85-20.98-6.35-31.99-9c-1.54,5.14-1.76,16.89,0,22c0,0.33,0,0.66,0,1c-0.34,0-0.67,0-1,0c-0.23,1.89,1.12,2.199,1,4
			c12.57,2.42,23.22,6.77,35.99,9c0.33,0,0.67,0,1,0C80.206,190.76,89.936,193.36,100.406,195.23z" />
						<path fill="#D9B829"
							d="M210.385,34.25c-0.63,3.36,1.29,9.28-1,10.99C210.026,41.88,208.106,35.96,210.385,34.25z" />
						<path fill="#D9B829"
							d="M209.385,46.24c-0.62,3.04,1.28,8.62-1,10C209.015,53.2,207.106,47.63,209.385,46.24z" />
						<path fill="#D9B829"
							d="M208.385,59.24c-0.31,7.36-0.45,14.88-2,21C206.286,72.47,206.616,65.14,208.385,59.24z" />
						<path fill="#D9B829"
							d="M206.385,81.24c-1.38,23.28-3.21,46.11-6,67.99C201.646,125.82,203.465,102.98,206.385,81.24z" />
						<path fill="#D9B829"
							d="M200.385,150.23c-0.359,11.97-1.08,23.58-2.989,34C197.835,172.34,198.276,160.45,200.385,150.23z" />
						<path fill="#D9B829" d="M197.396,185.23c-0.211,11.449-1.15,22.189-3,31.989c-3.471-0.8-3.851,1.49-7,1c0.84-1.479,3.22-1.439,5-2
			C197.156,208.99,194.375,194.21,197.396,185.23z" />
						<path fill="#D9B829" d="M192.396,18.25c-3.78,59.55-10.551,124.76-16,185.97c-23.971,5.04-45.261,12.74-68.99,18
			c0.66-67.66-1.34-137.979,1-203.97C130.475,18.42,165.265,20.64,192.396,18.25z M180.396,68.24c1.25-9.63,2.02-13.63,2-24
			c-22.33,0-44.66,0-66.99,0c0,30.67,0,61.33,0,91.99c12.1-1.56,27.1-5.55,37.99-5c-1.021,9.65-2.24,19.1-3,29
			c-12.37,2.3-22.681,6.64-34.99,9c0,8.33,0,16.66,0,25c19.35-4.311,37.29-10.04,55.99-15c1.84-25.82,4.069-51.25,7-75.99
			c-14.061,0.6-25.311,4.02-39,5c0-13.34,0-26.67,0-40C153.066,68.24,166.725,68.24,180.396,68.24z" />
						<path fill="#D9B829"
							d="M144.396,230.22c10.789-4.2,22.96-7.04,35-10C168.646,224.47,156.505,227.33,144.396,230.22z" />
						<path fill="#D9B829"
							d="M108.406,240.22c8.569-3.43,18.24-5.75,27.99-8C127.935,235.76,118.305,238.12,108.406,240.22z" />
						<path fill="#D9B829" d="M100.406,43.24c0,50.66,0,101.33,0,151.99c-10.47-1.87-20.2-4.471-29-8c9.98,1.68,18.02,5.31,28,7
			c0-50,0-99.99,0-149.99c-8,0-16,0-24,0c0,39.67,0,79.33,0,118.99c-2.05-1.62-6.55-0.78-8-3c3.06-0.73,2.94,1.73,6,1
			c2.33-37,0.33-78.32,1-116.99C81.175,42.02,91.996,43.83,100.406,43.24z" />
						<path fill="#D9B829"
							d="M106.406,240.22c-8.49-1.84-16.81-3.859-24-7C90.896,235.06,99.215,237.08,106.406,240.22z" />
						<path fill="#D9B829"
							d="M77.406,232.22c-10.63-2.7-21.59-5.069-31-9C57.125,225.84,68.085,228.21,77.406,232.22z" />
						<path fill="#D9B829" d="M34.416,176.23c10.91,4.75,25.09,6.229,35.99,11c-12.77-2.23-23.42-6.58-35.99-9c0.12-1.801-1.23-2.11-1-4
			c0.33,0,0.66,0,1,0C34.416,174.89,34.416,175.56,34.416,176.23z" />
						<path fill="#D9B829" d="M34.416,151.23c11.01,2.65,22.18,5.15,31.99,9c-11.4-1.93-20.7-5.96-31.99-8c0,7,0,14,0,21
			C32.656,168.12,32.875,156.37,34.416,151.23z" />
						<path fill="#D9B829" d="M20.416,214.22c6.04,5.29,18.14,4.521,24.99,9c-8.98-2.01-17.48-4.51-25.99-7
			c0.41-12.069-2.41-20.92-2-32.989C19.235,192.74,19.866,203.43,20.416,214.22z" />
						<path fill="#D9B829"
							d="M14.416,148.23c1.82,10.51,2.84,21.82,3,34C15.695,171.62,14.706,160.27,14.416,148.23z" />
						<path fill="#D9B829"
							d="M12.416,125.23c1.69,6.31,2.07,13.93,2,22C12.866,140.78,12.605,133.04,12.416,125.23z" />
						<path fill="#D9B829"
							d="M11.416,114.24c2.28,1.38,0.37,6.96,1,9.99C10.136,122.85,12.045,117.27,11.416,114.24z" />
						<path fill="#D9B829"
							d="M10.416,101.24c2.29,2.04,0.36,8.3,1,12C9.116,111.2,11.056,104.93,10.416,101.24z" />
						<path fill="#D9B829"
							d="M8.416,79.24c1.63,6.04,2.03,13.3,2,21C8.855,94.13,8.525,86.8,8.416,79.24z" />
						<path fill="#D9B829"
							d="M5.416,44.24c2.03,10.31,2.75,21.91,3,34C6.695,67.63,5.715,56.28,5.416,44.24z" />
						<path fill="#D9B829"
							d="M2.416,10.25c2.15,9.84,2.75,21.25,3,32.99C3.686,32.97,2.846,21.82,2.416,10.25z" />
					</g>
					<g>
					</g>
				</g>
				<path fill="#B5962F" d="M21.77,262.322v-16.8h6.2v16.92c0,3.533-0.803,6.163-2.41,7.89c-1.607,1.728-4.083,2.591-7.43,2.591
	c-1.747,0-3.307-0.228-4.68-0.681l0.72-4.92c1.173,0.32,2.267,0.48,3.28,0.48c1.56,0,2.67-0.443,3.33-1.33
	S21.77,264.202,21.77,262.322z" />
				<path fill="#B5962F" d="M49.371,260.923v6.8c0,1.974,0.106,3.56,0.32,4.76h-5.56l-0.36-1.96h-0.16c-1.347,1.6-3.253,2.4-5.72,2.4
	c-1.92,0-3.48-0.584-4.68-1.75c-1.2-1.167-1.8-2.584-1.8-4.25c0-2.427,1.017-4.287,3.05-5.58c2.033-1.294,4.95-1.94,8.75-1.94v-0.24
	c0-1.626-1.227-2.439-3.68-2.439c-2,0-3.853,0.493-5.56,1.479l-1.16-3.92c2.173-1.2,4.773-1.8,7.8-1.8c2.88,0,5.06,0.727,6.54,2.18
	C48.63,256.116,49.371,258.202,49.371,260.923z M43.411,265.242v-2c-3.92,0-5.88,1.014-5.88,3.04c0,0.733,0.22,1.304,0.66,1.71
	c0.44,0.407,1.046,0.61,1.82,0.61c0.84,0,1.617-0.293,2.33-0.88S43.411,266.31,43.411,265.242z" />
				<path fill="#B5962F" d="M51.49,252.923h6.72c2.573,8.427,3.88,13.026,3.92,13.8h0.16c0.24-1.333,0.586-2.807,1.04-4.42l2.68-9.38
	h6.56l-7.52,19.56h-6.24L51.49,252.923z" />
				<path fill="#B5962F" d="M91.371,260.923v6.8c0,1.974,0.106,3.56,0.32,4.76h-5.56l-0.36-1.96h-0.16c-1.347,1.6-3.253,2.4-5.72,2.4
	c-1.92,0-3.48-0.584-4.68-1.75c-1.2-1.167-1.8-2.584-1.8-4.25c0-2.427,1.017-4.287,3.05-5.58c2.033-1.294,4.95-1.94,8.75-1.94v-0.24
	c0-1.626-1.227-2.439-3.68-2.439c-2,0-3.853,0.493-5.56,1.479l-1.16-3.92c2.173-1.2,4.773-1.8,7.8-1.8c2.88,0,5.06,0.727,6.54,2.18
	C90.63,256.116,91.371,258.202,91.371,260.923z M85.411,265.242v-2c-3.92,0-5.88,1.014-5.88,3.04c0,0.733,0.22,1.304,0.66,1.71
	c0.44,0.407,1.046,0.61,1.82,0.61c0.84,0,1.617-0.293,2.33-0.88S85.411,266.31,85.411,265.242z" />
				<path fill="#B5962F" d="M95.53,271.202l1.28-5.08c2.307,1.174,4.653,1.761,7.04,1.761c1.373,0,2.443-0.261,3.211-0.78
	c0.766-0.521,1.148-1.233,1.148-2.14c0-0.813-0.346-1.493-1.039-2.04s-1.895-1.107-3.6-1.681c-5.147-1.706-7.72-4.387-7.72-8.04
	c0-2.359,0.947-4.303,2.84-5.83c1.893-1.526,4.413-2.29,7.561-2.29c2.746,0,5.146,0.467,7.199,1.4l-1.4,4.92
	c-1.879-0.88-3.84-1.32-5.879-1.32c-1.254,0-2.234,0.24-2.94,0.721c-0.707,0.479-1.06,1.106-1.06,1.88c0,0.707,0.297,1.31,0.89,1.81
	s2.017,1.15,4.271,1.95c2.492,0.88,4.316,1.97,5.469,3.271c1.154,1.3,1.73,2.916,1.73,4.85c0,2.479-0.973,4.493-2.92,6.04
	s-4.666,2.32-8.16,2.32C100.463,272.923,97.823,272.35,95.53,271.202z" />
				<path fill="#B5962F" d="M133.008,267.442l0.76,4.521c-1.506,0.64-3.412,0.96-5.719,0.96c-3.227,0-5.801-0.91-7.721-2.73
	s-2.879-4.257-2.879-7.31c0-3.054,1.033-5.551,3.1-7.49c2.066-1.94,4.859-2.91,8.379-2.91c1.801,0,3.414,0.267,4.84,0.8l-1,4.561
	c-1.012-0.427-2.199-0.641-3.559-0.641c-1.613,0-2.918,0.507-3.91,1.521c-0.994,1.014-1.49,2.319-1.49,3.92
	c0,1.667,0.516,2.99,1.551,3.97c1.031,0.98,2.355,1.47,3.969,1.47C130.649,268.082,131.875,267.869,133.008,267.442z" />
				<path fill="#B5962F" d="M137.288,272.482v-13.04c0-2.933-0.053-5.106-0.158-6.52h5.318l0.201,3.72h0.16
	c0.479-1.347,1.223-2.377,2.229-3.09c1.008-0.714,2.078-1.07,3.211-1.07c0.627,0,1.066,0.04,1.32,0.12v5.8
	c-0.52-0.133-1.08-0.2-1.68-0.2c-1.148,0-2.168,0.323-3.061,0.971c-0.893,0.646-1.34,1.79-1.34,3.43v9.88H137.288z" />
				<path fill="#B5962F"
					d="M159.448,247.122c0,0.934-0.32,1.707-0.959,2.32c-0.641,0.613-1.48,0.92-2.521,0.92
	c-1.039,0-1.879-0.307-2.52-0.92c-0.639-0.613-0.959-1.387-0.959-2.32c0-0.933,0.322-1.706,0.969-2.319s1.484-0.92,2.51-0.92
	c1.027,0,1.863,0.307,2.512,0.92C159.125,245.416,159.448,246.189,159.448,247.122z M159.088,272.482h-6.201v-19.56h6.201V272.482z" />
				<path fill="#B5962F" d="M164.049,280.402v-20.88c0-2-0.055-4.2-0.16-6.6h5.398l0.281,2.8c1.613-2.16,3.906-3.24,6.879-3.24
	c2.307,0,4.277,0.917,5.91,2.75s2.451,4.224,2.451,7.17c0,3.227-0.895,5.787-2.682,7.68c-1.785,1.894-3.959,2.841-6.52,2.841
	c-1.133,0-2.176-0.204-3.129-0.61s-1.67-0.963-2.15-1.67h-0.08v9.76H164.049z M170.249,261.563v2.4c0,0.84,0.143,1.55,0.43,2.13
	s0.744,1.076,1.371,1.489c0.625,0.414,1.318,0.62,2.078,0.62c1.348,0,2.418-0.493,3.211-1.479s1.189-2.32,1.189-4
	c0-1.641-0.383-2.957-1.15-3.95c-0.766-0.993-1.809-1.49-3.129-1.49c-1.08,0-2.018,0.407-2.811,1.22
	C170.645,259.315,170.249,260.336,170.249,261.563z" />
				<path fill="#B5962F" d="M189.489,249.242l6.039-1.64v5.32h4.439v4.56h-4.439v6.88c0,1.294,0.189,2.203,0.57,2.73
	c0.379,0.526,1.004,0.79,1.869,0.79c0.801,0,1.428-0.067,1.881-0.2l0.039,4.68c-0.973,0.373-2.318,0.561-4.039,0.561
	c-1.867,0-3.395-0.557-4.58-1.671c-1.188-1.112-1.779-3.076-1.779-5.89v-7.88h-2.641v-4.56h2.641V249.242z" />
				<path fill="#D9B829" d="M14.522,312.482v-34.632c3.311-0.485,7.02-0.729,11.128-0.729c5.131,0,8.857,1.04,11.18,3.12
	s3.484,4.715,3.484,7.904c0,3.9-1.331,6.886-3.991,8.957c-2.661,2.071-6.323,3.106-10.985,3.106c-0.919,0-1.872-0.068-2.86-0.208
	v12.48H14.522z M22.478,283.467v10.348c0.572,0.139,1.508,0.208,2.808,0.208c2.184,0,3.909-0.503,5.174-1.508
	s1.898-2.393,1.898-4.16c0-1.629-0.563-2.895-1.69-3.796c-1.127-0.901-2.713-1.353-4.758-1.353
	C24.281,283.206,23.137,283.293,22.478,283.467z" />
				<path fill="#D9B829"
					d="M44.734,312.482V295.53c0-3.813-0.069-6.639-0.208-8.476h6.916l0.26,4.836h0.208
	c0.624-1.751,1.59-3.09,2.899-4.018c1.309-0.927,2.699-1.391,4.173-1.391c0.814,0,1.387,0.052,1.716,0.156v7.54
	c-0.676-0.174-1.404-0.261-2.184-0.261c-1.491,0-2.817,0.421-3.978,1.262c-1.162,0.841-1.742,2.327-1.742,4.459v12.844H44.734z" />
				<path fill="#D9B829" d="M90.494,299.482c0,4.16-1.309,7.462-3.926,9.906c-2.617,2.443-5.902,3.666-9.854,3.666
	c-3.987,0-7.254-1.2-9.802-3.602c-2.548-2.4-3.822-5.567-3.822-9.503c0-4.038,1.283-7.293,3.848-9.763
	c2.565-2.47,5.962-3.705,10.192-3.705c3.952,0,7.167,1.214,9.646,3.64C89.254,292.55,90.494,295.669,90.494,299.482z
	 M71.358,299.794c0,2.254,0.49,4.074,1.469,5.461c0.979,1.387,2.292,2.079,3.939,2.079c1.612,0,2.907-0.685,3.887-2.054
	s1.469-3.215,1.469-5.538c0-2.219-0.468-4.029-1.404-5.434c-0.936-1.404-2.236-2.106-3.9-2.106c-1.716,0-3.055,0.707-4.017,2.119
	C71.839,295.734,71.358,297.559,71.358,299.794z" />
				<path fill="#D9B829" d="M90.91,323.715l-0.78-6.24c1.56-0.104,2.847-0.429,3.861-0.976c1.014-0.546,1.699-1.469,2.054-2.769
	c0.355-1.3,0.533-3.449,0.533-6.448v-20.228h8.06v22.204c0,5.442-1.227,9.212-3.679,11.31
	C98.505,322.665,95.156,323.715,90.91,323.715z M105.106,279.515c0,1.195-0.413,2.196-1.235,3.003
	c-0.824,0.806-1.92,1.209-3.289,1.209c-1.352,0-2.444-0.398-3.276-1.196c-0.832-0.797-1.248-1.803-1.248-3.016
	s0.42-2.219,1.261-3.017c0.841-0.797,1.928-1.195,3.263-1.195c1.352,0,2.444,0.395,3.276,1.183
	C104.689,277.274,105.106,278.284,105.106,279.515z" />
				<path fill="#D9B829" d="M134.018,302.343h-16.9c0.139,1.508,0.896,2.682,2.275,3.522c1.377,0.841,3.098,1.261,5.16,1.261
	c2.635,0,5.063-0.363,7.281-1.092l1.039,5.356c-2.635,1.108-5.789,1.664-9.463,1.664c-4.352,0-7.762-1.161-10.232-3.484
	c-2.469-2.322-3.705-5.494-3.705-9.516c0-3.692,1.188-6.877,3.563-9.556c2.375-2.678,5.572-4.017,9.594-4.017
	c3.709,0,6.588,1.196,8.633,3.588c2.045,2.393,3.068,5.46,3.068,9.204C134.331,300.505,134.225,301.528,134.018,302.343z
	 M117.065,296.83h9.777c0-1.195-0.352-2.335-1.053-3.419c-0.703-1.083-1.895-1.625-3.576-1.625c-1.387,0-2.535,0.464-3.445,1.392
	C117.858,294.104,117.292,295.322,117.065,296.83z" />
				<path fill="#D9B829" d="M157.782,305.931l0.988,5.876c-1.959,0.832-4.438,1.248-7.436,1.248c-4.195,0-7.541-1.184-10.037-3.549
	c-2.496-2.366-3.744-5.534-3.744-9.504c0-3.969,1.344-7.215,4.031-9.736c2.686-2.522,6.318-3.783,10.893-3.783
	c2.342,0,4.438,0.347,6.293,1.04l-1.301,5.928c-1.316-0.555-2.859-0.832-4.627-0.832c-2.098,0-3.793,0.659-5.084,1.977
	s-1.936,3.016-1.936,5.096c0,2.167,0.67,3.887,2.014,5.161c1.344,1.273,3.064,1.911,5.162,1.911
	C154.713,306.763,156.309,306.485,157.782,305.931z" />
				<path fill="#D9B829" d="M165.217,282.271l7.852-2.132v6.916h5.771v5.928h-5.771v8.944c0,1.681,0.246,2.864,0.74,3.549
	s1.305,1.026,2.432,1.026c1.039,0,1.854-0.086,2.443-0.26l0.053,6.084c-1.266,0.485-3.016,0.729-5.252,0.729
	c-2.428,0-4.412-0.724-5.955-2.171s-2.313-4-2.313-7.657v-10.244h-3.434v-5.928h3.434V282.271z" />
				<path fill="#D9B829" d="M182.063,311.234l1.457-5.72c0.936,0.537,2.084,0.992,3.445,1.365c1.359,0.372,2.568,0.559,3.627,0.559
	c2.322,0,3.484-0.693,3.484-2.08c0-0.693-0.283-1.23-0.846-1.612c-0.564-0.381-1.564-0.797-3.004-1.248
	c-4.99-1.542-7.486-4.072-7.486-7.592c0-2.443,0.975-4.459,2.924-6.045c1.951-1.586,4.512-2.379,7.684-2.379
	c2.773,0,5.234,0.503,7.383,1.508l-1.402,5.512c-2.012-0.97-3.918-1.455-5.721-1.455c-2.08,0-3.119,0.676-3.119,2.027
	c0,0.607,0.314,1.118,0.947,1.534s1.738,0.876,3.316,1.378c2.426,0.763,4.211,1.772,5.355,3.029s1.717,2.847,1.717,4.771
	c0,2.514-0.988,4.521-2.965,6.02s-4.732,2.249-8.268,2.249C187.333,313.055,184.491,312.448,182.063,311.234z" />
			</svg>